<?xml version="1.0" standalone="no"?>
<!DOCTYPE svg PUBLIC "-//W3C//DTD SVG 20010904//EN"
 "http://www.w3.org/TR/2001/REC-SVG-20010904/DTD/svg10.dtd">
<svg version="1.0" xmlns="http://www.w3.org/2000/svg"
 width="700.000000pt" height="700.000000pt" viewBox="0 0 700.000000 700.000000"
 preserveAspectRatio="xMidYMid meet">
<metadata>
Created by potrace 1.14, written by Peter Selinger 2001-2017
</metadata>
<g transform="translate(0.000000,700.000000) scale(0.100000,-0.100000)"
fill="#000000" stroke="none">
<path d="M5138 5630 c-208 -32 -383 -60 -390 -62 -6 -2 190 -140 437 -306 247
-165 451 -300 452 -298 2 2 -94 666 -102 704 -3 12 -9 22 -13 21 -4 -1 -177
-27 -384 -59z"/>
<path d="M3655 5405 c-148 -23 -272 -43 -273 -44 -4 -1 229 -156 718 -478
l245 -162 289 44 c159 25 291 46 292 48 7 7 -959 630 -980 633 -11 1 -142 -17
-291 -41z"/>
<path d="M2330 5204 c-151 -23 -279 -43 -285 -43 -5 -1 207 -146 472 -322
l481 -321 291 43 c160 24 290 47 288 51 -3 10 -957 638 -965 637 -4 -1 -131
-21 -282 -45z"/>
<path d="M1320 4993 c0 -4 23 -159 50 -343 l50 -335 0 -353 c0 -195 4 -352 8
-350 5 2 194 165 420 363 l411 360 -202 5 -202 5 190 28 c104 16 191 30 193
31 2 3 -857 562 -905 590 -7 4 -13 4 -13 -1z"/>
<path d="M2575 3950 l-450 -389 -352 -1 -353 0 0 -1125 0 -1125 2130 0 c1695
0 2132 3 2135 13 3 6 4 677 3 1490 l-3 1479 -414 -366 -413 -366 -381 0 c-373
0 -381 0 -362 19 11 10 202 179 425 376 223 197 412 364 420 371 12 12 -31 14
-280 14 l-295 0 -444 -390 -445 -390 -380 0 -381 0 25 24 c27 25 825 723 850
743 12 10 -48 12 -285 12 l-300 -1 -450 -388z m1190 -814 c114 -37 198 -89
292 -182 67 -68 89 -97 126 -175 103 -214 103 -421 2 -625 -143 -291 -462
-445 -780 -379 -38 8 -113 36 -165 61 -79 39 -110 62 -181 133 -71 72 -93 102
-132 181 -205 420 27 899 488 1006 92 21 251 12 350 -20z"/>
<path d="M3330 2455 c0 -239 3 -435 6 -435 15 0 643 434 637 440 -15 13 -635
430 -639 430 -2 0 -4 -196 -4 -435z"/>
</g>
</svg>
